<svg version="1" xmlns="http://www.w3.org/2000/svg" width="2048" height="2048" viewBox="0 0 1536.000000 1536.000000"><path d="M383.7.7c211.4.2 557.2.2 768.5 0C1363.6.6 1190.7.5 768 .5S172.4.6 383.7.7zM498 59.1c-1.9 1.2-4.3 2.9-5.2 4-1.5 1.5-10.8 30.3-17.7 54.9-2.3 7.8-9.7 32.7-11.6 39-.8 2.5-7.1 23.6-14 47s-13.4 45.4-14.5 49c-8.4 28.3-14.6 49.3-17.6 59.5-1.9 6.6-4.6 15.6-5.9 20-2.2 7.2-9.4 31.5-16.1 54.5-5.6 19.1-10.6 36-12.9 43.5-1.3 4.4-6.5 21.9-11.5 39-5 17-9.5 32.1-9.9 33.5-.5 1.4-1.6 5-2.5 8-2.1 7.5-9.6 33.1-21 71.5-5.2 17.6-13.6 45.9-18.6 63-5.1 17-12.8 43.1-17.2 58-4.4 14.8-9.5 32.4-11.5 39-2 6.6-5.7 19.4-8.2 28.5l-4.7 16.5-4.6 1.1c-2.5.7-7.2 1.5-10.4 1.8-3.3.4-7 .9-8.4 1.1-1.4.2-10.4 1.1-20 2-9.6.8-19.5 1.7-22 2-2.5.2-8.5.7-13.5 1-4.9.3-10.6.7-12.5 1-1.9.2-8 .7-13.5 1-5.5.3-12 .8-14.5 1-2.5.2-8.8.7-14 1-5.2.3-12.4.8-16 1-3.6.3-10.5.7-15.5 1-4.9.3-11.7.8-15 1-3.3.2-10.3.6-15.5 1-5.2.3-12.9.8-17 1-4.1.3-11.5.7-16.5 1-4.9.3-11.9.7-15.5 1-3.6.2-12.2.7-19.2 1.1l-12.7.6-.4-3.8c-.2-2.2-.4.3-.5 5.3L0 820l3.3.1c1.7.1 4.6.2 6.2.4 1.7.1 12 .5 23 .9s23.8.9 28.5 1.1c4.7.2 15.7.7 24.5 1 21.7.8 37.6 1.4 52.5 2 16.3.7 52.2 2 80.5 3 7.7.3 19.6.7 26.5 1 6.9.3 19 .7 27 1 8 .3 21 .7 29 1 39.8 1.5 43.1 1.5 46.6 0 4.5-1.9 6-3.5 8.3-8.7 3.3-7.7 26-68.4 55.1-147.3 5.1-13.8 11-29.7 13.2-35.5 2.1-5.8 5.2-14.1 6.7-18.5 4.5-12.4 8.3-22.8 31.1-84.5 11.7-31.6 22.5-61.1 24.1-65.5 10.3-28.9 18.5-50 19.4-49.7.6.2 2.2 4.5 3.6 9.5 1.5 5.1 8.8 29.4 16.2 54.2 7.5 24.7 18.7 62.3 25.1 83.5 15.7 52.9 36.2 121.2 65.7 220 25.2 84.2 47.1 157.3 80 267.5 9.9 33 18.6 62 19.3 64.5.8 2.5 8.7 28.8 17.6 58.5 8.9 29.7 17.6 58.9 19.5 65 1.9 6 8.1 27 14 46.5 5.8 19.5 11.4 38.2 12.5 41.5 1 3.3 3 9.8 4.4 14.5 9.4 31.5 33.2 109.9 35.3 116.5 1.9 5.7 3.5 8.8 5.7 10.7 5.9 5.2 15.2 5.5 21.5.6 4-3 5.8-6.9 9.6-20.5 2-7 5.4-19.1 7.6-26.8 5.1-18.1 42.6-153.3 53-191 9-32.5 30.4-109.7 37.9-136.5 2.7-9.6 16.9-60.7 31.5-113.5 14.6-52.8 27.9-100.7 29.5-106.5 1.6-5.8 5.4-19.5 8.5-30.5 3-11 6.1-22.3 6.9-25 2-7.1 6.7-23.8 13.1-47 13.6-48.7 16.7-60 21-75.3 2.5-9 4.5-16.6 4.5-16.8 0-.3.5-.2 1.1.2 1.7 1 3.1 4.5 29.3 74.4 19.2 50.8 24.5 64.2 26.4 66.4 4.8 5.4-8.1 5 209.5 5.4l200.7.4-.2-19.9-.3-19.8-2.5-.1c-1.4-.1-11.9-.5-23.5-.8-11.5-.4-27.1-.9-34.5-1.1-7.4-.2-22.5-.7-33.5-1-11-.3-22.9-.8-26.5-1-3.6-.3-12.3-.7-19.5-1-7.1-.3-16.6-.7-21-1-4.4-.3-13.6-.7-20.5-1-6.9-.3-16.5-.7-21.5-1-4.9-.3-14.4-.7-21-1-6.6-.3-15.8-.7-20.5-1-10.6-.6-25.3-1.3-39-2-5.8-.3-15-.8-20.5-1-16.7-.9-40.9-2.5-41.2-2.9-.4-.4-3.8-12.3-24.8-87.1-10.8-38.5-22.1-78.8-25.1-89.4-3-10.7-6.1-21.8-6.9-24.5-.7-2.8-9-32.6-18.5-66.1-9.5-33.6-17.6-62.4-18-64-2-7.3-11.1-37.7-12.9-43.1-2.3-6.6-5.6-9.9-11.3-11.4-6.1-1.7-16 1.5-18.2 5.9-1.6 3.1-13.4 39.4-54.8 169.1-22.7 71.3-32 100.4-35.8 112.5-6 19.2-10.2 32.4-13 41-5.1 15.8-12.6 39.6-17.3 54.5-9 28.6-37.9 119.7-41.7 131.5-2.1 6.6-9.5 30-16.5 52s-13.9 43.8-15.4 48.5c-1.5 4.7-7.4 23.2-13.1 41.2-5.7 18.1-10.7 32.5-11.1 32-1.1-1.1-18.8-57.3-61.7-195.7-7.2-23.1-16.1-51.7-19.7-63.5-3.7-11.8-7.5-24.2-8.5-27.5-1-3.3-10-32.3-20-64.5s-18.9-60.8-19.7-63.5c-1.8-6.1-13.2-42.9-16.7-54-1.4-4.4-4.1-13.2-6-19.5-1.9-6.3-10.3-33.6-18.6-60.5-8.4-27-19.8-64.1-25.5-82.5-5.7-18.4-15.1-48.8-20.8-67.5-5.8-18.7-13.5-43.7-17.2-55.5-7.6-24.6-12.6-41-19.5-63-2.7-8.5-11.9-38.2-20.5-66-30.5-98.1-40.3-128.6-43-132.7-4.1-6.2-13.8-8.2-20.5-4.2z"/></svg>